<?xml version="1.0" encoding="iso-8859-1"?>
<!-- Generator: Adobe Illustrator 19.0.0, SVG Export Plug-In . SVG Version: 6.00 Build 0)  -->
<svg version="1.1" id="copy" xmlns="http://www.w3.org/2000/svg" xmlns:xlink="http://www.w3.org/1999/xlink" x="0px" y="0px"
	 viewBox="0 0 512 512" style="enable-background:new 0 0 512 512;" xml:space="preserve" fill="currentColor" stroke="currentcolor">
<g>
	<g>
		<path d="M465.173,123.627c-0.64-1.387-1.493-2.667-2.56-3.733L345.387,3.413C343.147,1.28,340.16,0,337.067,0H151.36
			c-6.4,0-11.627,5.227-11.627,11.627v0.107v35.2h-35.307c-6.4,0-11.627,5.227-11.627,11.627V92.8H57.6
			c-6.507,0-11.733,5.227-11.733,11.627v395.947c0,6.4,5.227,11.627,11.627,11.627h303.04c6.507,0,11.733-5.227,11.733-11.733v-35.2
			h35.2c6.507,0,11.733-5.227,11.733-11.733V419.2h35.2c6.507,0,11.733-5.227,11.733-11.627V128.107
			C466.133,126.507,465.813,125.013,465.173,123.627z M348.8,39.68l76.693,76.587H348.8V39.68z M348.8,488.533H69.333V116.267H92.8
			V453.44c0,6.4,5.227,11.627,11.627,11.627H348.8V488.533z M395.733,441.6H116.267V69.333h23.467V408
			c0,6.187,5.227,11.2,11.627,11.2h244.373V441.6z M442.667,395.733H163.2V23.467h163.2v104.64c0,6.4,5.227,11.627,11.627,11.627
			h104.64V395.733z"/>
	</g>
</g>
<g>
</g>
<g>
</g>
<g>
</g>
<g>
</g>
<g>
</g>
<g>
</g>
<g>
</g>
<g>
</g>
<g>
</g>
<g>
</g>
<g>
</g>
<g>
</g>
<g>
</g>
<g>
</g>
<g>
</g>
</svg>
